<svg id="Layer_1" data-name="Layer 1" xmlns="http://www.w3.org/2000/svg" viewBox="0 0 512 512">
  <defs>
    <style>
      .cls-1 {
        fill: #0097c6;
      }
    </style>
  </defs>
  <path class="cls-1" d="M347.69,176.81l29.95,30.4L254.06,329a42.27,42.27,0,0,1-30,12.37,42.72,42.72,0,0,1-30.21-12.48l-59.34-57.51,29.71-30.66,59.59,57.75L347.71,176.81ZM512,256c0,141.16-114.84,256-256,256S0,397.16,0,256,114.84,0,256,0,512,114.84,512,256Zm-42.67,0c0-117.63-95.7-213.33-213.33-213.33S42.67,138.37,42.67,256,138.37,469.33,256,469.33,469.33,373.63,469.33,256Z" transform="translate(0 0)"/>
</svg>
